<svg width="19" height="19" viewBox="0 0 19 19" fill="none" xmlns="http://www.w3.org/2000/svg">
<path fill-rule="evenodd" clip-rule="evenodd" d="M10.1425 11.2969C10.0399 11.0168 9.77063 10.8163 9.45541 10.8163C9.14019 10.8163 8.87089 11.0168 8.76836 11.2969L9.45541 11.7877L10.1425 11.2969ZM9.45541 14.7837C9.32749 14.8984 9.18247 14.9925 9.02556 15.0625L9.15233 15.5697H9.75845L9.88526 15.0625C9.72835 14.9925 9.58332 14.8984 9.45541 14.7837ZM15.5228 4.3543C15.5499 4.32874 15.5769 4.30303 15.6034 4.27649C16.7457 3.13415 16.9772 1.51354 16.1205 0.656805C15.2638 -0.199933 13.6432 0.0315556 12.5008 1.1739C12.4719 1.20282 12.4438 1.23218 12.4161 1.26169C13.7621 1.91974 14.8588 3.01162 15.5228 4.3543ZM6.4948 1.26169C6.46699 1.23199 6.43874 1.20273 6.41004 1.1739C5.26766 0.031519 3.64709 -0.19997 2.79032 0.656769C1.93358 1.51351 2.16507 3.13411 3.30741 4.27645C3.33396 4.303 3.36094 4.3287 3.38796 4.35426C4.05201 3.01162 5.14868 1.91974 6.4948 1.26169ZM3.16565 16.8292C3.25711 16.9022 3.35016 16.9732 3.44475 17.042C5.05709 18.2147 7.19171 18.8605 9.45541 18.8605C11.7191 18.8605 13.8537 18.2147 15.4661 17.042C15.5607 16.9732 15.6537 16.9022 15.7452 16.8292C15.0514 14.4779 13.1858 12.6607 10.8662 12.128L10.0039 12.744V13.5586C10.0039 13.8611 10.2499 14.1071 10.5523 14.1071C10.8548 14.1071 11.1008 13.8611 11.1008 13.5586C11.1008 13.2557 11.3464 13.0102 11.6493 13.0102C11.9522 13.0102 12.1977 13.2557 12.1977 13.5586C12.1977 14.3122 11.6883 14.9487 10.9959 15.1428L10.7188 16.2512C10.6891 16.3699 10.6206 16.4752 10.5242 16.5505C10.4278 16.6257 10.309 16.6666 10.1867 16.6666H8.72412C8.60181 16.6666 8.483 16.6257 8.3866 16.5504C8.29019 16.4752 8.22171 16.3698 8.19204 16.2512L7.91496 15.1428C7.2225 14.9487 6.71309 14.3122 6.71309 13.5586C6.71309 13.2557 6.95865 13.0102 7.26155 13.0102C7.56445 13.0102 7.81002 13.2557 7.81002 13.5586C7.81002 13.8611 8.05606 14.1071 8.35848 14.1071C8.6609 14.1071 8.90695 13.8611 8.90695 13.5586V12.744L8.04465 12.1281C5.72501 12.6607 3.85946 14.4779 3.16565 16.8292ZM7.68712 11.0833C6.30806 11.4198 5.04297 12.1496 4.01771 13.2195C3.24744 14.0234 2.66176 14.968 2.28266 15.9974C1.35882 14.9608 0.862793 13.7428 0.862793 12.4617C0.862793 10.5998 1.92444 8.85887 3.78794 7.64501V7.3427C3.78794 4.21766 6.33036 1.67523 9.45541 1.67523C12.5804 1.67523 15.1229 4.21766 15.1229 7.3427V7.64501C16.9864 8.85887 18.048 10.5998 18.048 12.4617C18.048 13.7428 17.552 14.9608 16.6281 15.9974C16.249 14.968 15.6633 14.0234 14.8931 13.2195C13.8678 12.1496 12.6028 11.4198 11.2237 11.0833C11.0177 10.2994 10.3031 9.71938 9.45541 9.71938C8.6077 9.71938 7.89312 10.2994 7.68712 11.0833ZM12.0149 6.79423C11.712 6.79423 11.4664 7.0398 11.4664 7.3427V8.43963C11.4664 8.74253 11.712 8.98809 12.0149 8.98809C12.3178 8.98809 12.5634 8.74253 12.5634 8.43963V7.3427C12.5634 7.0398 12.3178 6.79423 12.0149 6.79423ZM6.8959 6.79423C6.59301 6.79423 6.34744 7.0398 6.34744 7.3427V8.43963C6.34744 8.74253 6.59301 8.98809 6.8959 8.98809C7.1988 8.98809 7.44437 8.74253 7.44437 8.43963V7.3427C7.44437 7.0398 7.1988 6.79423 6.8959 6.79423Z" fill="white"/>
</svg>
